Coordinates
version=1
nRows=13
nColumns=38
inDegrees=no

Units are S.I. units (second, meters, Newtons, ...)
If the header above contains a line with 'inDegrees', this indicates whether rotational values are in degrees (yes) or radians (no).

endheader
time	pelvis_tilt	pelvis_list	pelvis_rotation	pelvis_tx	pelvis_ty	pelvis_tz	hip_flexion_r	hip_adduction_r	hip_rotation_r	knee_angle_r	ankle_angle_r	subtalar_angle_r	mtp_angle_r	hip_flexion_l	hip_adduction_l	hip_rotation_l	knee_angle_l	ankle_angle_l	subtalar_angle_l	mtp_angle_l	lumbar_extension	lumbar_bending	lumbar_rotation	arm_flex_r	arm_add_r	arm_rot_r	elbow_flex_r	pro_sup_r	wrist_flex_r	wrist_dev_r	arm_flex_l	arm_add_l	arm_rot_l	elbow_flex_l	pro_sup_l	wrist_flex_l	wrist_dev_l
1.37	1.50369	1.53692	-2.64437	0.753839	1.56397	0.904383	0.389136	-0.191043	-0.267059	0.300346	-0.061596	0	0	-0.353639	-0.0780056	0.0106693	0.110548	0.195307	0	0	-0.265757	0.0436942	0.0342432	0.809532	-0.392335	0.420938	1.11799	1.45354	0	0	-0.122583	-0.368077	-0.032615	0.789789	0.394634	0	0
1.38	1.10209	1.55016	-2.22783	0.753737	1.55729	0.905168	0.376373	-0.174211	-0.288643	0.30055	-0.0596881	0	0	-0.345143	-0.107002	-0.000348609	0.135947	0.200614	0	0	-0.27133	0.0710822	0.0400089	0.85278	-0.394402	0.44049	1.09141	1.44853	0	0	-0.118711	-0.362165	-0.0311834	0.7868	0.397145	0	0
1.39	1.76818	1.5413	-2.88842	0.75228	1.5503	0.906418	0.383977	-0.18861	-0.287523	0.3114	-0.0517185	0	0	-0.326749	-0.0974446	0.000279593	0.156886	0.185926	0	0	-0.268342	0.0580651	0.0480319	0.886173	-0.389208	0.447703	1.06059	1.44479	0	0	-0.113488	-0.362121	-0.0300619	0.781549	0.399766	0	0
1.4	1.63601	1.55751	-2.74123	0.752135	1.5436	0.907272	0.371513	-0.170867	-0.307357	0.306855	-0.049273	0	0	-0.312845	-0.126333	-0.010712	0.186085	0.188156	0	0	-0.270906	0.0844914	0.0549721	0.926262	-0.391408	0.466911	1.03061	1.4405	0	0	-0.110988	-0.356464	-0.0271071	0.780284	0.402092	0	0
1.41	2.13355	1.55808	3.05544	0.751297	1.53689	0.908423	0.367875	-0.168616	-0.315278	0.305602	-0.0451309	0	0	-0.292624	-0.135996	-0.0156873	0.215823	0.180785	0	0	-0.269842	0.0906981	0.0625325	0.961548	-0.390631	0.481832	0.998487	1.43563	0	0	-0.107566	-0.354056	-0.0230553	0.778494	0.40436	0	0
1.42	2.60998	1.55451	2.59043	0.750535	1.53016	0.909509	0.364856	-0.166639	-0.322586	0.302963	-0.0406047	0	0	-0.269763	-0.144925	-0.0189996	0.246985	0.171018	0	0	-0.266973	0.0961692	0.0705117	0.99456	-0.390684	0.496986	0.965514	1.43021	0	0	-0.104216	-0.351784	-0.0175192	0.776543	0.406335	0	0
1.43	2.89272	1.54807	2.31962	0.749859	1.52345	0.910563	0.362014	-0.164724	-0.32929	0.299311	-0.0357871	0	0	-0.244453	-0.153521	-0.0208678	0.280132	0.15939	0	0	-0.262791	0.101368	0.0785648	1.0249	-0.391292	0.511714	0.932108	1.42411	0	0	-0.101081	-0.349951	-0.00975481	0.774604	0.407756	0	0
1.44	3.04109	1.54019	2.18396	0.749238	1.51691	0.91164	0.359299	-0.163486	-0.335876	0.295339	-0.030959	0	0	-0.216475	-0.161479	-0.0207688	0.316002	0.145797	0	0	-0.258152	0.106139	0.0863371	1.05358	-0.392954	0.527105	0.899042	1.41644	0	0	-0.0979814	-0.34872	0.000158044	0.773403	0.408397	0	0
1.45	3.14033	1.53167	2.09807	0.748556	1.51058	0.912696	0.356941	-0.162161	-0.34235	0.29098	-0.0265035	0	0	-0.185527	-0.169288	-0.0184226	0.35475	0.129812	0	0	-0.253183	0.111013	0.0940547	1.08115	-0.395699	0.544125	0.866177	1.40652	0	0	-0.0949693	-0.347907	0.0109184	0.773487	0.408457	0	0
1.46	-3.06327	1.52307	2.03199	0.747891	1.50439	0.913689	0.355038	-0.160489	-0.349113	0.287143	-0.0212971	0	0	-0.152089	-0.177239	-0.0152411	0.396596	0.11099	0	0	-0.247968	0.116572	0.102124	1.10743	-0.399832	0.563525	0.834266	1.39268	0	0	-0.0924789	-0.347328	0.0223665	0.774842	0.408199	0	0
1.47	-2.99648	1.51446	1.97886	0.747273	1.49832	0.914587	0.353611	-0.158691	-0.356865	0.284248	-0.0151431	0	0	-0.11635	-0.185257	-0.011924	0.441557	0.0886835	0	0	-0.242494	0.122681	0.110233	1.13273	-0.405271	0.586875	0.803346	1.37041	0	0	-0.0911602	-0.347383	0.03525	0.778684	0.407778	0	0
1.48	-2.94886	1.50693	1.94474	0.74665	1.49229	0.915525	0.350853	-0.156576	-0.364745	0.280909	-0.00966869	0	0	-0.0814207	-0.192674	-0.00768844	0.486286	0.0636591	0	0	-0.238407	0.128692	0.11908	1.15556	-0.412222	0.609846	0.7765	1.34098	0	0	-0.0901094	-0.347839	0.0480591	0.784394	0.407474	0	0
1.49	-2.90682	1.50024	1.91629	0.746026	1.48633	0.916456	0.347042	-0.153811	-0.373287	0.276578	-0.00587179	0	0	-0.0464452	-0.200062	-0.00368944	0.531404	0.0372206	0	0	-0.23512	0.134981	0.128003	1.17639	-0.419891	0.632622	0.751886	1.30866	0	0	-0.0895236	-0.348387	0.0596254	0.791002	0.407282	0	0
